PathFileType	4	(X/Y/Z)	Walk4.trc
DataRate	CameraRate	NumFrames	NumMarkers	Units	OrigDataRate	OrigDataStartFrame	OrigNumFrames
200.000000	200.000000	5	59	mm	200.000000	468	506
Frame#	Times		LBHD		RBHD		C7		T10		RBack		LPSI		RPSI		RElbowM		RCAR		RFA1		LUA1		RTB1		RTH3		RTB4		LACR1		LCAR		RTH2		LWRU		RTB3		LWRR		RMT1		RWRU		RToe		LElbowM		RCAL		CLAV		RUA1		RTH4		RTH1		RWRR		RMT5		LFA1		LLFC		RACR1		RTB2		LTH1		LTH4		LFHD		RElbow		RLFC		RFHD		LElbow		RMMAL		STRN		LTH3		RLMAL		RASI		LTB2		LTH2		LTB3		LCAL		LASI		LMT5		LMT1		LTB1		LToe		LTB4		LLMAL		LMMAL
			X1	Y1	Z1	X2	Y2	Z2	X3	Y3	Z3	X4	Y4	Z4	X5	Y5	Z5	X6	Y6	Z6	X7	Y7	Z7	X8	Y8	Z8	X9	Y9	Z9	X10	Y10	Z10	X11	Y11	Z11	X12	Y12	Z12	X13	Y13	Z13	X14	Y14	Z14	X15	Y15	Z15	X16	Y16	Z16	X17	Y17	Z17	X18	Y18	Z18	X19	Y19	Z19	X20	Y20	Z20	X21	Y21	Z21	X22	Y22	Z22	X23	Y23	Z23	X24	Y24	Z24	X25	Y25	Z25	X26	Y26	Z26	X27	Y27	Z27	X28	Y28	Z28	X29	Y29	Z29	X30	Y30	Z30	X31	Y31	Z31	X32	Y32	Z32	X33	Y33	Z33	X34	Y34	Z34	X35	Y35	Z35	X36	Y36	Z36	X37	Y37	Z37	X38	Y38	Z38	X39	Y39	Z39	X40	Y40	Z40	X41	Y41	Z41	X42	Y42	Z42	X43	Y43	Z43	X44	Y44	Z44	X45	Y45	Z45	X46	Y46	Z46	X47	Y47	Z47	X48	Y48	Z48	X49	Y49	Z49	X50	Y50	Z50	X51	Y51	Z51	X52	Y52	Z52	X53	Y53	Z53	X54	Y54	Z54	X55	Y55	Z55	X56	Y56	Z56	X57	Y57	Z57	X58	Y58	Z58	X59	Y59	Z59

468	2.34	634.61	1494.6	-158.3	624.44	1507.7	-35.84	592.15	1363	-86.096	561.74	1091.9	-72.214	557.36	1269.1	49.054	543.93	904.55	-92.584	536.29	906.58	6.4196	592.94	977.71	140.55	720.32	761.69	257.62	645.06	892.85	232.45	695.04	1110	-311.65	798.04	343.1	62.32	750.96	564.96	142.51	751.88	263.9	57.953	682.82	1288.5	-239.11	785.69	725.94	-374.68	795.08	682.68	139.95	732.55	756.41	-356.31	718.97	176.36	52.011	799.12	761.87	-323.16	743.43	71.667	58.297	672.17	782.95	224.62	783.43	42.304	87.574	631.87	958.53	-259.39	588.75	105.34	40.606	714.29	1282.3	-66.266	658.26	1159.3	168.53	723.43	655.66	158.66	698.87	740.75	175.77	744.17	798.74	209.46	706.35	63.606	100.16	695.6	872.39	-348.68	667.24	453.59	-164.79	653.72	1308.8	76.965	715.15	276.61	119.54	711.77	743.78	-225.57	710.27	653.71	-197.78	804.57	1484.1	-122.76	638.49	1019.2	214.44	794.44	475.08	138.16	804.17	1496.2	-46.113	662.09	991.42	-325.39	670.71	116.59	8.9493	775.98	1177.6	-58.326	702.86	562.51	-175.08	644.49	115.01	84.814	754.25	887.56	107.61	646.09	248.55	-144.01	768.66	666.2	-155.2	670.15	159.4	-69.027	570.63	29.935	-61.943	742.69	859.06	-197.06	701.96	27.623	-111.81	725.44	49.16	-59.249	692.85	339.59	-84.952	780.72	27.386	-69.669	672.62	250.44	-78.106	613.4	62.254	-106.72	636.52	69.66	-30.037
469	2.345	639.86	1494.4	-158.33	629.61	1507.4	-35.872	597.33	1362.7	-86.197	566.64	1091.6	-72.385	562.41	1268.8	48.87	548.5	904.48	-92.485	541.09	906.37	6.5731	596.48	977.8	140.13	721.45	761.16	258.94	647.22	892.76	232.83	700.37	1109.8	-311.91	807.91	343.43	61.29	758.05	565.13	141.84	763.8	263.11	57.333	688.01	1288.2	-239.18	792.78	726.16	-374.6	801.3	683.19	139.19	739.41	756.3	-356.2	733.02	174.74	51.729	805.94	762.13	-323.08	760.17	70.785	58.165	673.75	782.68	225.43	801.1	42.574	87.33	637.77	958.07	-259.57	604.53	100.31	41.081	719.41	1281.9	-66.325	662.46	1159	168.46	729.96	655.63	158.17	704.73	740.53	175.46	745.98	798	210.9	723.53	61.809	100.21	701.89	872.13	-348.8	668.96	453.43	-164.87	658.78	1308.5	76.891	727.13	274.97	119.1	715.66	743.23	-225.74	713.49	653.19	-197.84	809.77	1483.7	-122.67	641.5	1019.1	214.43	801.97	475.48	137.02	809.33	1495.8	-45.991	667.76	991.1	-325.6	686.11	113.71	8.9826	780.98	1177.1	-58.44	705.41	562.04	-175.06	660.28	111.53	85.068	759.37	887.17	107.13	646.98	248.45	-144.02	771.92	665.27	-155.27	670.66	159.23	-69.001	570.62	30.013	-61.896	746.96	858.58	-197.27	701.96	27.707	-111.85	725.47	48.94	-59.071	694.18	339.34	-85.014	780.81	27.312	-69.604	673.52	250.27	-78.103	613.52	62.287	-106.6	636.64	69.634	-29.895
470	2.35	645.12	1494.1	-158.35	634.77	1507.1	-35.888	602.52	1362.4	-86.278	571.54	1091.3	-72.544	567.47	1268.5	48.704	553.08	904.38	-92.375	545.9	906.13	6.7334	600.01	977.85	139.74	722.58	760.61	260.24	649.41	892.63	233.19	705.7	1109.5	-312.16	817.7	343.76	60.271	765.05	565.25	141.16	775.72	262.35	56.725	693.2	1287.9	-239.24	799.88	726.34	-374.48	807.49	683.63	138.43	746.28	756.14	-356.05	747.09	173.22	51.458	812.75	762.38	-322.97	776.92	70	58.029	675.35	782.38	226.22	818.72	42.935	87.079	643.67	957.56	-259.74	620.44	95.422	41.526	724.53	1281.5	-66.37	666.68	1158.7	168.41	736.46	655.55	157.69	710.63	740.27	175.18	747.78	797.25	212.34	740.72	60.139	100.25	708.18	871.84	-348.91	670.74	453.27	-164.95	663.85	1308.1	76.837	739.08	273.38	118.66	719.55	742.65	-225.92	716.71	652.65	-197.91	814.97	1483.3	-122.57	644.53	1018.9	214.44	809.38	475.82	135.86	814.49	1495.3	-45.845	673.42	990.73	-325.8	701.6	110.93	9.0182	786	1176.7	-58.545	707.99	561.55	-175.02	676.14	108.17	85.305	764.5	886.74	106.66	647.91	248.34	-144.02	775.2	664.33	-155.33	671.2	159.05	-68.972	570.61	30.103	-61.851	751.28	858.14	-197.55	701.96	27.795	-111.88	725.51	48.72	-58.885	695.56	339.07	-85.07	780.93	27.213	-69.521	674.45	250.08	-78.092	613.65	62.321	-106.48	636.78	69.612	-29.752
471	2.355	650.37	1493.8	-158.36	639.92	1506.7	-35.89	607.71	1362	-86.338	576.43	1091	-72.689	572.54	1268.1	48.555	557.66	904.27	-92.25	550.73	905.86	6.9011	603.55	977.87	139.37	723.73	760.05	261.53	651.61	892.47	233.54	711.05	1109.2	-312.39	827.42	344.08	59.27	771.96	565.31	140.48	787.62	261.63	56.131	698.39	1287.5	-239.29	806.98	726.48	-374.33	813.66	683.99	137.68	753.15	755.94	-355.85	761.18	171.78	51.198	819.56	762.61	-322.85	793.67	69.317	57.89	676.97	782.06	226.99	836.29	43.388	86.826	649.57	957.02	-259.92	636.46	90.688	41.939	729.67	1281.1	-66.4	670.92	1158.3	168.37	742.92	655.44	157.21	716.57	739.97	174.91	749.59	796.49	213.76	757.93	58.604	100.29	714.47	871.51	-348.99	672.56	453.09	-165.02	668.93	1307.6	76.8	750.99	271.84	118.21	723.43	742.07	-226.08	719.94	652.1	-197.98	820.18	1482.9	-122.44	647.59	1018.7	214.46	816.69	476.1	134.71	819.64	1494.9	-45.678	679.08	990.32	-325.99	717.17	108.27	9.0619	791.03	1176.1	-58.639	710.62	561.05	-174.98	692.06	104.95	85.525	769.61	886.24	106.21	648.88	248.24	-144.02	778.49	663.39	-155.41	671.78	158.87	-68.941	570.61	30.204	-61.806	755.65	857.76	-197.9	701.96	27.882	-111.91	725.56	48.504	-58.695	696.98	338.79	-85.117	781.07	27.088	-69.421	675.41	249.89	-78.072	613.8	62.355	-106.35	636.94	69.592	-29.608
472	2.36	655.62	1493.4	-158.35	645.07	1506.3	-35.877	612.91	1361.6	-86.38	581.33	1090.7	-72.817	577.62	1267.7	48.423	562.25	904.13	-92.107	555.57	905.56	7.0771	607.07	977.86	139.03	724.88	759.48	262.79	653.84	892.27	233.87	716.41	1108.9	-312.61	837.05	344.39	58.291	778.79	565.33	139.79	799.49	260.95	55.554	703.59	1287.1	-239.32	814.09	726.59	-374.14	819.8	684.26	136.94	760.03	755.7	-355.62	775.28	170.45	50.952	826.39	762.82	-322.7	810.41	68.743	57.747	678.6	781.71	227.74	853.79	43.937	86.571	655.45	956.44	-260.1	652.6	86.124	42.32	734.82	1280.6	-66.416	675.17	1157.9	168.34	749.35	655.28	156.74	722.54	739.63	174.66	751.4	795.72	215.17	775.13	57.209	100.32	720.77	871.14	-349.06	674.45	452.9	-165.1	674.03	1307.1	76.78	762.84	270.37	117.75	727.29	741.47	-226.25	723.18	651.54	-198.04	825.38	1482.4	-122.3	650.69	1018.5	214.5	823.9	476.31	133.56	824.79	1494.4	-45.491	684.73	989.87	-326.17	732.8	105.74	9.1189	796.08	1175.6	-58.722	713.28	560.54	-174.92	708.04	101.88	85.726	774.73	885.7	105.79	649.89	248.12	-144.02	781.79	662.44	-155.5	672.38	158.69	-68.909	570.61	30.314	-61.759	760.06	857.42	-198.31	701.97	27.964	-111.94	725.63	48.295	-58.506	698.44	338.48	-85.157	781.23	26.935	-69.304	676.4	249.68	-78.044	613.95	62.392	-106.21	637.11	69.577	-29.465
